<svg width="512" height="512" viewBox="0 0 512 512" fill="none" xmlns="http://www.w3.org/2000/svg">
  <defs>
    <linearGradient id="bg" x1="0" y1="0" x2="1" y2="1">
      <stop offset="0%" stop-color="#f6d7b0"/>
      <stop offset="100%" stop-color="#f1c691"/>
    </linearGradient>
    <linearGradient id="accent" x1="0" y1="0" x2="1" y2="1">
      <stop offset="0%" stop-color="#b64018"/>
      <stop offset="100%" stop-color="#e3622f"/>
    </linearGradient>
  </defs>

  <rect x="0" y="0" width="512" height="512" rx="56" fill="url(#bg)"/>

  <ellipse cx="256" cy="230" rx="185" ry="120" fill="url(#accent)" opacity="0.22"/>

  <!-- Calendar -->
  <g transform="translate(70 95) rotate(-9)">
    <rect x="0" y="0" width="165" height="145" rx="18" fill="#fff5e9" stroke="#5a1e10" stroke-width="8"/>
    <rect x="0" y="0" width="165" height="34" rx="16" fill="#c5481d"/>
    <circle cx="34" cy="6" r="10" fill="#2b100b"/>
    <circle cx="82" cy="6" r="10" fill="#2b100b"/>
    <circle cx="131" cy="6" r="10" fill="#2b100b"/>
    <path d="M18 60H147M18 88H147M18 116H147M54 36V137M92 36V137" stroke="#8f5d42" stroke-width="3" opacity="0.6"/>
    <path d="M30 73L39 83L57 62" stroke="#c5481d" stroke-width="7" stroke-linecap="round" stroke-linejoin="round"/>
    <path d="M98 103L106 110L123 93" stroke="#c5481d" stroke-width="7" stroke-linecap="round" stroke-linejoin="round"/>
  </g>

  <!-- Clock -->
  <g transform="translate(328 110)">
    <circle cx="74" cy="74" r="72" fill="#fff7ec" stroke="#3a120b" stroke-width="12"/>
    <circle cx="74" cy="74" r="6" fill="#3a120b"/>
    <path d="M74 74L74 37" stroke="#3a120b" stroke-width="7" stroke-linecap="round"/>
    <path d="M74 74L46 57" stroke="#3a120b" stroke-width="7" stroke-linecap="round"/>
    <path d="M74 74L103 74" stroke="#3a120b" stroke-width="6" stroke-linecap="round"/>
  </g>

  <!-- Person + checklist card -->
  <g transform="translate(178 122)">
    <path d="M76 178C42 178 15 150 15 116V97C15 63 42 36 76 36C110 36 137 63 137 97V116C137 150 110 178 76 178Z" fill="#2b100b"/>
    <circle cx="76" cy="72" r="28" fill="#e8b06d"/>
    <path d="M55 70C61 78 72 82 86 70" stroke="#2b100b" stroke-width="4" stroke-linecap="round"/>
    <rect x="116" y="90" width="120" height="148" rx="14" fill="#fff7ec" stroke="#2b100b" stroke-width="8" transform="rotate(8 116 90)"/>
    <g transform="translate(134 118) rotate(8)">
      <rect x="0" y="0" width="18" height="18" rx="4" fill="#d55324"/>
      <path d="M4 10L8 14L14 6" stroke="#fff" stroke-width="3" stroke-linecap="round" stroke-linejoin="round"/>
      <path d="M26 10H72" stroke="#2b100b" stroke-width="4" stroke-linecap="round"/>

      <rect x="0" y="35" width="18" height="18" rx="4" fill="#d55324"/>
      <path d="M4 45L8 49L14 41" stroke="#fff" stroke-width="3" stroke-linecap="round" stroke-linejoin="round"/>
      <path d="M26 45H72" stroke="#2b100b" stroke-width="4" stroke-linecap="round"/>

      <rect x="0" y="70" width="18" height="18" rx="4" fill="#d55324"/>
      <path d="M4 80L8 84L14 76" stroke="#fff" stroke-width="3" stroke-linecap="round" stroke-linejoin="round"/>
      <path d="M26 80H72" stroke="#2b100b" stroke-width="4" stroke-linecap="round"/>
    </g>
  </g>

  <text x="256" y="455" text-anchor="middle" fill="#5a1507" font-size="92" font-family="Vazirmatn, Tahoma, sans-serif" font-weight="800">تسکچی</text>
</svg>
